# xmcd
#
# Track frame offsets: 
#        150
#        15758
#        31983
#        43080
#        78378
#        89785
#        103190
#        114658
#        137215
#        148921
#        172760
#
# Disc length: 2330 seconds
#
# Revision: 0
# Processed by: cddbd v1.5.2PL0 Copyright (c) Steve Scherf et al.
# Submitted via: ExactAudioCopyFreeDBPlugin 1.0
#
DISCID=9009180b
DTITLE=Willie Dixon - Songs of Memphis Slim and Willie Dixon
DYEAR=1960
DGENRE=Blues
TTITLE0=Joggie Boogie
TTITLE1=Stewball
TTITLE2=John Henry
TTITLE3=Kansas City Nos. 1, 2 and 3
TTITLE4=Have You Ever Been to Nashville Pen?
TTITLE5=Roll and Tumble
TTITLE6=Beer Drinking Woman
TTITLE7=Chicago House Rent Party
TTITLE8=44 Blues
TTITLE9=Unlucky
TTITLE10=data
EXTD=
EXTT0=
EXTT1=
EXTT2=
EXTT3=
EXTT4=
EXTT5=
EXTT6=
EXTT7=
EXTT8=
EXTT9=
EXTT10=
PLAYORDER=
